<svg width="21" height="17" viewBox="0 0 21 17" fill="none" xmlns="http://www.w3.org/2000/svg">
<path d="M20.3967 15.9671C20.3984 16.1013 20.3733 16.2345 20.323 16.3591C20.2726 16.4837 20.1979 16.5972 20.1032 16.6932C20.0085 16.7891 19.8955 16.8656 19.7709 16.9182C19.6462 16.9709 19.5123 16.9986 19.3768 16.9999H1.01985C0.748981 16.9916 0.492021 16.8792 0.303392 16.6865C0.114762 16.4938 0.00927734 16.236 0.00927734 15.9676C0.00927734 15.6993 0.114762 15.4414 0.303392 15.2487C0.492021 15.056 0.748981 14.9436 1.01985 14.9353H19.3798C19.515 14.9369 19.6486 14.9648 19.7729 15.0175C19.8972 15.0702 20.0098 15.1467 20.1042 15.2425C20.1986 15.3383 20.2731 15.4517 20.3233 15.576C20.3734 15.7003 20.3984 15.8332 20.3967 15.9671Z" fill="black"/>
<path d="M20.3303 10.9285C20.2685 11.1123 20.1693 11.2816 20.0389 11.426C19.7763 11.706 19.4419 11.9102 19.0714 12.017C18.2424 12.2906 17.4567 12.1374 17.0859 12.0409C17.095 12.0011 17.105 11.9633 17.1141 11.9245L17.0809 12.0399C17.0226 12.0279 16.9634 12.014 16.9051 11.9991L16.8729 11.9901L15.4281 11.614H15.4191L3.9055 8.11756C3.66499 8.0455 3.44247 7.92413 3.25241 7.76135L0.814861 5.63403C0.653485 5.49167 0.543714 5.30082 0.50238 5.09075C0.382814 4.51763 0.140666 3.32163 0 2.63408C0.0271285 2.32363 0.361714 2.10175 0.71338 2.16941L2.01957 2.42513C2.203 2.45575 2.37602 2.53057 2.52338 2.64301C2.67073 2.75544 2.78791 2.90204 2.86457 3.06989L3.52168 4.61215L7.99287 5.77134L7.87732 5.41512L6.31793 0.620181C6.2486 0.298793 6.53094 0.000291017 6.9027 0.000291017H8.35559C8.57131 -0.00427271 8.78474 0.0449039 8.97628 0.143306C9.16781 0.241708 9.33132 0.386183 9.45178 0.563465L13.4899 6.86584L13.7401 7.26385L15.6491 7.76135L17.6757 8.28771L18.0334 8.37627C18.0827 8.38821 18.1731 8.4101 18.2836 8.44393C18.6906 8.56631 19.41 8.79417 19.9495 9.42102C20.0168 9.49839 20.0782 9.58053 20.1334 9.66679C20.3896 10.0618 20.473 10.5066 20.3303 10.9285Z" fill="black"/>
</svg>
