<svg width="20" height="19" viewBox="0 0 20 19" fill="none" xmlns="http://www.w3.org/2000/svg">
<g clip-path="url(#clip0_12_106)">
<path d="M0.956342 16.8226H18.7307C19.0931 16.8226 19.3895 16.5196 19.3895 16.1594C19.3895 15.7992 19.0931 15.5046 18.7307 15.5046H0.956342C0.593937 15.5046 0.297424 15.7992 0.297424 16.1594C0.297424 16.5196 0.593937 16.8226 0.956342 16.8226Z" fill="#111111"/>
<path d="M2.15886 8.20249L16.268 11.9763C17.8494 12.402 19.4555 11.9845 19.6778 10.7648C19.8591 9.64326 18.6235 8.6282 17.1493 8.34165L12.0179 7.32657C11.6638 7.26107 11.4579 7.12191 11.2108 6.7699L6.85365 0.5402C6.71363 0.343731 6.52419 0.212751 6.29358 0.155448L5.70879 0.00809638C5.50287 -0.0410208 5.34638 0.139076 5.40403 0.392848L6.98544 7.04824L7.50433 6.44245L3.18018 5.59927L4.56391 6.45064L1.23637 2.58675C1.07164 2.39847 0.898676 2.34116 0.602164 2.40666L0.289178 2.47214C0.0667928 2.51308 -0.032045 2.68499 0.00913743 2.88145L0.882204 7.12191C0.997516 7.6622 1.45052 8.0142 2.15886 8.20249Z" fill="#111111"/>
</g>
<defs>
<clipPath id="clip0_12_106">
<rect width="20" height="19" fill="white"/>
</clipPath>
</defs>
</svg>
